<svg width="253" height="31" viewBox="0 0 253 31" fill="none" xmlns="http://www.w3.org/2000/svg">
<rect x="232.863" y="6.42969" width="20" height="9" rx="2" fill="url(#paint0_linear_2485_909)"/>
<path d="M0 5.92105C0 2.65095 2.65095 0 5.92105 0H24.0789C27.3491 0 30 2.65095 30 5.92105V24.0789C30 27.3491 27.3491 30 24.0789 30H5.92105C2.65095 30 0 27.3491 0 24.0789V5.92105Z" fill="url(#paint1_linear_2485_909)"/>
<path fill-rule="evenodd" clip-rule="evenodd" d="M8.40201 4.46875H21.5915C23.7569 4.46875 25.5287 6.23063 25.5287 8.40591V21.5954C25.5287 23.7707 23.7668 25.5326 21.5915 25.5326H8.40201C6.22672 25.5326 4.46484 23.7707 4.46484 21.5954V14.8038L6.58107 12.6974C6.85667 12.4218 7.33897 12.6187 7.33897 13.0124V18.8099H8.94337L8.98274 15.2369C8.98274 14.9022 9.12054 14.5971 9.33708 14.3806C9.55363 14.164 9.85876 14.0262 10.1934 14.0262C10.6856 14.0262 11.0891 14.4199 11.0891 14.9121V18.8H12.6935V15.2467C12.6935 14.9121 12.8313 14.6069 13.0479 14.3904C13.2644 14.1739 13.5695 14.0361 13.9042 14.0361C14.3963 14.0361 14.7999 14.4298 14.7999 14.9219V18.8099H16.4043V14.6266C16.4043 13.5538 15.5283 12.6876 14.4554 12.6876H14.229C13.3825 12.6876 12.7526 13.1896 12.4868 13.7605C12.162 13.1207 11.5025 12.6876 10.7446 12.6876H10.5182C9.67174 12.6876 8.98274 13.3667 8.9729 14.2132V13.0616C8.9729 11.8214 7.95908 10.9946 6.89604 10.9946C6.39405 10.9946 5.88222 11.1816 5.45898 11.595L4.46484 12.5793V8.40591C4.46484 6.23063 6.22672 4.46875 8.40201 4.46875ZM19.1206 16.3183H23.3826H23.3925V15.7868C23.3925 14.9797 23.0578 14.2414 22.5164 13.7099C21.9751 13.1686 21.227 12.8438 20.4101 12.8438C18.7663 12.8438 17.4375 14.1627 17.4375 15.7868V16.2002C17.4375 17.8144 18.7663 19.1334 20.4101 19.1334H20.8333C21.414 19.1334 22.0538 18.8971 22.546 18.5231C23.048 18.1392 23.3925 17.6176 23.3925 17.0467H21.857C21.857 17.529 21.4534 17.9227 20.9711 17.9227H20.5183C19.7506 17.9227 19.1206 17.3026 19.1206 16.5348V16.3183Z" fill="white"/>
<path d="M20.3065 13.998H20.225C19.555 13.998 19.0117 14.6656 19.0117 15.5029H21.5198C21.5198 15.0842 21.384 14.7109 21.1667 14.4393C20.9403 14.1678 20.6415 13.998 20.3065 13.998Z" fill="white"/>
<path d="M135.651 24.9824V7.32771H140.663C143.774 7.32771 146.021 8.587 146.021 11.7969V11.8957C146.021 13.8464 144.984 15.1797 143.009 15.723C145.651 16.2168 146.885 17.6242 146.885 20.0193V20.1181C146.885 23.3528 144.762 24.9824 141.404 24.9824H135.651ZM137.009 23.8713H141.379C144.145 23.8713 145.552 22.5626 145.552 20.1181V20.0193C145.552 17.5995 143.996 16.3649 140.91 16.3649H137.009V23.8713ZM137.009 15.2785H140.688C143.379 15.2785 144.663 14.0933 144.663 11.871V11.7723C144.663 9.47591 143.231 8.43885 140.638 8.43885H137.009V15.2785ZM154.706 25.18C152.039 25.18 150.162 23.7972 150.162 20.2416V12.0686H151.471V20.1675C151.471 22.9083 152.755 24.0441 155.002 24.0441C157.101 24.0441 159.224 22.6367 159.224 19.9206V12.0686H160.533V24.9824H159.224V22.5132C158.632 23.9207 156.977 25.18 154.706 25.18ZM168.563 25.2046C165.525 25.2046 163.772 23.5997 163.599 21.1305H164.859C165.081 22.8836 166.167 24.0935 168.563 24.0935C170.735 24.0935 171.847 23.1058 171.847 21.5502C171.847 19.8959 170.884 19.3774 168.464 18.9329C165.303 18.365 164.019 17.5502 164.019 15.3279C164.019 13.1303 166.093 11.871 168.266 11.871C170.587 11.871 172.414 12.834 172.76 15.3773H171.501C171.18 13.7229 170.118 12.9822 168.242 12.9822C166.439 12.9822 165.229 13.8958 165.229 15.2785C165.229 16.76 166.118 17.3032 168.76 17.7724C171.526 18.2662 173.106 18.9329 173.106 21.4515C173.106 23.6244 171.501 25.2046 168.563 25.2046ZM176.314 24.9824V12.0686H177.623V24.9824H176.314ZM176.956 9.30306C176.438 9.30306 176.018 8.8833 176.018 8.36477C176.018 7.87093 176.438 7.45117 176.956 7.45117C177.475 7.45117 177.87 7.87093 177.87 8.36477C177.87 8.8833 177.475 9.30306 176.956 9.30306ZM181.815 24.9824V12.0686H183.124V14.5871C183.716 13.1797 185.395 11.871 187.692 11.871C190.433 11.871 192.285 13.3525 192.285 17.0316V24.9824H190.976V16.9576C190.976 14.2168 189.692 13.0068 187.396 13.0068C185.247 13.0068 183.124 14.439 183.124 17.1551V24.9824H181.815ZM201.472 25.18C197.744 25.18 195.349 22.5379 195.349 18.6613V18.4638C195.349 14.5624 197.818 11.871 201.275 11.871C204.386 11.871 206.929 13.8958 206.929 18.1675V18.6366H196.707C196.756 22.0935 198.41 24.0688 201.472 24.0688C203.62 24.0688 205.077 23.1799 205.522 21.3774H206.83C206.287 23.8466 204.238 25.18 201.472 25.18ZM196.756 17.5749H205.571C205.448 14.439 203.793 12.9822 201.275 12.9822C198.781 12.9822 197.003 14.76 196.756 17.5749ZM214.082 25.2046C211.045 25.2046 209.292 23.5997 209.119 21.1305H210.378C210.6 22.8836 211.687 24.0935 214.082 24.0935C216.255 24.0935 217.366 23.1058 217.366 21.5502C217.366 19.8959 216.403 19.3774 213.983 18.9329C210.823 18.365 209.539 17.5502 209.539 15.3279C209.539 13.1303 211.613 11.871 213.786 11.871C216.107 11.871 217.934 12.834 218.28 15.3773H217.02C216.699 13.7229 215.637 12.9822 213.761 12.9822C211.958 12.9822 210.748 13.8958 210.748 15.2785C210.748 16.76 211.637 17.3032 214.279 17.7724C217.045 18.2662 218.625 18.9329 218.625 21.4515C218.625 23.6244 217.02 25.2046 214.082 25.2046ZM225.661 25.2046C222.624 25.2046 220.87 23.5997 220.698 21.1305H221.957C222.179 22.8836 223.266 24.0935 225.661 24.0935C227.834 24.0935 228.945 23.1058 228.945 21.5502C228.945 19.8959 227.982 19.3774 225.562 18.9329C222.401 18.365 221.117 17.5502 221.117 15.3279C221.117 13.1303 223.191 11.871 225.364 11.871C227.685 11.871 229.513 12.834 229.858 15.3773H228.599C228.278 13.7229 227.216 12.9822 225.34 12.9822C223.537 12.9822 222.327 13.8958 222.327 15.2785C222.327 16.76 223.216 17.3032 225.858 17.7724C228.624 18.2662 230.204 18.9329 230.204 21.4515C230.204 23.6244 228.599 25.2046 225.661 25.2046Z" fill="#302D43"/>
<path d="M235.437 13.4297V8.42469H237.229C238.258 8.42469 238.867 8.81669 238.867 9.72669V9.75469C238.867 10.2517 238.643 10.6437 238.076 10.8187C238.755 10.9657 239.077 11.3367 239.077 12.0017V12.0297C239.077 12.9607 238.461 13.4297 237.362 13.4297H235.437ZM236.347 12.7647H237.25C237.873 12.7647 238.16 12.4847 238.16 11.9667V11.9387C238.16 11.4207 237.873 11.1617 237.187 11.1617H236.347V12.7647ZM236.347 10.5317H237.117C237.733 10.5317 237.971 10.3077 237.971 9.79669V9.76869C237.971 9.29269 237.698 9.08969 237.103 9.08969H236.347V10.5317ZM241.59 13.4997C240.512 13.4997 239.735 12.7927 239.735 11.6377V11.5817C239.735 10.4477 240.512 9.69169 241.555 9.69169C242.465 9.69169 243.284 10.2307 243.284 11.5397V11.7847H240.603C240.631 12.4777 240.981 12.8697 241.611 12.8697C242.122 12.8697 242.388 12.6667 242.451 12.3097H243.27C243.151 13.0797 242.528 13.4997 241.59 13.4997ZM240.617 11.2177H242.444C242.402 10.5877 242.08 10.3077 241.555 10.3077C241.044 10.3077 240.701 10.6507 240.617 11.2177ZM245.387 13.4927C244.659 13.4927 244.281 13.1007 244.281 12.4077V10.4057H243.791V9.76869H244.281V8.96369H245.128V9.76869H245.933V10.4057H245.128V12.3307C245.128 12.6527 245.282 12.7997 245.548 12.7997C245.716 12.7997 245.842 12.7787 245.961 12.7297V13.4017C245.828 13.4507 245.646 13.4927 245.387 13.4927ZM247.819 13.4997C247.147 13.4997 246.594 13.1777 246.594 12.4147C246.594 11.5607 247.42 11.2527 248.47 11.2527H248.925V11.0637C248.925 10.5737 248.757 10.3287 248.26 10.3287C247.819 10.3287 247.602 10.5387 247.56 10.9027H246.741C246.811 10.0487 247.49 9.69169 248.309 9.69169C249.128 9.69169 249.772 10.0277 249.772 11.0287V13.4297H248.939V12.9817C248.701 13.2967 248.379 13.4997 247.819 13.4997ZM248.022 12.8907C248.54 12.8907 248.925 12.6177 248.925 12.1487V11.7847H248.491C247.847 11.7847 247.434 11.9317 247.434 12.3797C247.434 12.6877 247.602 12.8907 248.022 12.8907Z" fill="white"/>
<path d="M50.4773 21.7998V25.1246H39.6929C39.282 25.1246 38.9492 24.7952 38.9492 24.3885V6.02197H42.8191V21.7998H50.4773Z" fill="#302D43"/>
<path d="M56.5717 12.2095H52.7822V25.1248H56.5717V12.2095Z" fill="#302D43"/>
<path d="M73.41 16.6366V25.1241H69.6596V18.3246C69.6596 16.7547 68.373 15.4825 66.787 15.4825C65.994 15.4825 65.2767 15.8006 64.7568 16.3151C64.237 16.8297 63.9156 17.5397 63.9156 18.3246V25.1241H60.2432V12.2088H63.8766L63.8674 14.9452C63.8674 13.3481 66.1466 11.9385 67.7591 11.9385H68.6623C71.2846 11.9385 73.41 14.0422 73.41 16.6366Z" fill="#302D43"/>
<path d="M111.362 15.9451V25.1244H107.816V16.6051C107.816 15.5305 106.932 14.6604 105.845 14.6672C105.105 14.6718 104.436 14.9716 103.953 15.4533C103.469 15.936 103.17 16.6005 103.17 17.3332V25.1244H99.6239V16.6051C99.6239 15.5305 98.7403 14.6604 97.6534 14.6672C96.9132 14.6718 96.2407 14.9716 95.753 15.4533C95.2652 15.936 94.9622 16.6005 94.9622 17.3332L94.9358 25.1244H91.3758V12.409C91.3758 11.5412 90.3166 11.1073 89.6969 11.7207L83.4789 17.8739L90.0721 25.1244H85.4425L80.6959 19.6141V25.1244H76.8857V5.31641H80.6959V15.7668L87.2179 9.3114C90.0859 6.47163 94.9909 8.49241 94.9783 12.5079L94.9703 15.058C94.9703 13.1996 96.5001 11.6968 98.3765 11.6968H98.8768C100.559 11.6968 102.016 12.6555 102.72 14.0504C103.317 12.7884 104.692 11.6968 106.568 11.6968H107.069C109.44 11.6968 111.362 13.5995 111.362 15.9451Z" fill="#302D43"/>
<path d="M126.859 19.4017V18.2237C126.859 16.421 126.121 14.7899 124.928 13.6085C123.736 12.4272 122.086 11.6968 120.265 11.6968C116.624 11.6968 113.672 14.6183 113.672 18.2237V19.1324C113.672 22.731 116.619 25.6492 120.256 25.6492H121.192C122.482 25.6492 123.899 25.1312 124.993 24.2952C126.088 23.4591 126.859 22.3028 126.859 21.026H123.458C123.458 22.0938 122.583 22.9593 121.505 22.9593H120.504C118.79 22.9593 117.403 21.5849 117.403 19.8901V19.4017H126.859ZM120.352 14.2389H120.547C121.356 14.2389 122.089 14.5638 122.619 15.0886C123.149 15.6134 123.477 16.3392 123.477 17.1401H117.422C117.422 15.5373 118.734 14.2389 120.352 14.2389Z" fill="#302D43"/>
<path d="M57.0406 7.7001C57.0406 8.91439 55.9825 9.89922 54.6765 9.89922C53.3716 9.89922 52.3135 8.91439 52.3135 7.7001C52.3135 6.48581 53.3716 5.50098 54.6765 5.50098C55.9825 5.50098 57.0406 6.48581 57.0406 7.7001Z" fill="#302D43"/>
<defs>
<linearGradient id="paint0_linear_2485_909" x1="234.76" y1="6.50727" x2="245.128" y2="19.1728" gradientUnits="userSpaceOnUse">
<stop stop-color="#C29AFF"/>
<stop offset="1" stop-color="#4062FF"/>
</linearGradient>
<linearGradient id="paint1_linear_2485_909" x1="2.84483" y1="0.258621" x2="32.6101" y2="16.6214" gradientUnits="userSpaceOnUse">
<stop stop-color="#C29AFF"/>
<stop offset="1" stop-color="#4062FF"/>
</linearGradient>
</defs>
</svg>
